<?xml version="1.0" encoding="UTF-8" standalone="no"?>
<!DOCTYPE svg PUBLIC "-//W3C//DTD SVG 1.1//EN"
 "http://www.w3.org/Graphics/SVG/1.1/DTD/svg11.dtd">
<!-- Generated by graphviz version 2.26.0 (20091210.2329)
 -->
<!-- Title: G Pages: 1 -->
<svg width="172pt" height="270pt"
 viewBox="0.00 0.00 172.00 270.00" xmlns="http://www.w3.org/2000/svg" xmlns:xlink="http://www.w3.org/1999/xlink">
<g id="graph1" class="graph" transform="scale(1 1) rotate(0) translate(4 266)">
<title>G</title>
<polygon fill="white" stroke="white" points="-4,5 -4,-266 169,-266 169,5 -4,5"/>
<g id="graph2" class="cluster"><title>cluster_Global</title>
<polyline fill="none" stroke="gray" points="20,-8 144,-8 "/>
<path fill="none" stroke="gray" d="M144,-8C150,-8 156,-14 156,-20"/>
<polyline fill="none" stroke="gray" points="156,-20 156,-242 "/>
<path fill="none" stroke="gray" d="M156,-242C156,-248 150,-254 144,-254"/>
<polyline fill="none" stroke="gray" points="144,-254 20,-254 "/>
<path fill="none" stroke="gray" d="M20,-254C14,-254 8,-248 8,-242"/>
<polyline fill="none" stroke="gray" points="8,-242 8,-20 "/>
<path fill="none" stroke="gray" d="M8,-20C8,-14 14,-8 20,-8"/>
<text text-anchor="middle" x="82" y="-240.1" font-family="Times Roman,serif" font-size="11.00" fill="gray">Global</text>
</g>
<g id="graph3" class="cluster"><title>cluster_\dooaki</title>
<polyline fill="none" stroke="gray" points="28,-16 136,-16 "/>
<path fill="none" stroke="gray" d="M136,-16C142,-16 148,-22 148,-28"/>
<polyline fill="none" stroke="gray" points="148,-28 148,-211 "/>
<path fill="none" stroke="gray" d="M148,-211C148,-217 142,-223 136,-223"/>
<polyline fill="none" stroke="gray" points="136,-223 28,-223 "/>
<path fill="none" stroke="gray" d="M28,-223C22,-223 16,-217 16,-211"/>
<polyline fill="none" stroke="gray" points="16,-211 16,-28 "/>
<path fill="none" stroke="gray" d="M16,-28C16,-22 22,-16 28,-16"/>
<text text-anchor="middle" x="82" y="-209.1" font-family="Times Roman,serif" font-size="11.00" fill="gray">dooaki</text>
</g>
<g id="graph4" class="cluster"><title>cluster_\dooaki\Container</title>
<polyline fill="none" stroke="gray" points="36,-24 128,-24 "/>
<path fill="none" stroke="gray" d="M128,-24C134,-24 140,-30 140,-36"/>
<polyline fill="none" stroke="gray" points="140,-36 140,-180 "/>
<path fill="none" stroke="gray" d="M140,-180C140,-186 134,-192 128,-192"/>
<polyline fill="none" stroke="gray" points="128,-192 36,-192 "/>
<path fill="none" stroke="gray" d="M36,-192C30,-192 24,-186 24,-180"/>
<polyline fill="none" stroke="gray" points="24,-180 24,-36 "/>
<path fill="none" stroke="gray" d="M24,-36C24,-30 30,-24 36,-24"/>
<text text-anchor="middle" x="82" y="-178.1" font-family="Times Roman,serif" font-size="11.00" fill="gray">Container</text>
</g>
<g id="graph5" class="cluster"><title>cluster_\dooaki\Container\Lazy</title>
<polyline fill="none" stroke="gray" points="44,-32 120,-32 "/>
<path fill="none" stroke="gray" d="M120,-32C126,-32 132,-38 132,-44"/>
<polyline fill="none" stroke="gray" points="132,-44 132,-149 "/>
<path fill="none" stroke="gray" d="M132,-149C132,-155 126,-161 120,-161"/>
<polyline fill="none" stroke="gray" points="120,-161 44,-161 "/>
<path fill="none" stroke="gray" d="M44,-161C38,-161 32,-155 32,-149"/>
<polyline fill="none" stroke="gray" points="32,-149 32,-44 "/>
<path fill="none" stroke="gray" d="M32,-44C32,-38 38,-32 44,-32"/>
<text text-anchor="middle" x="82" y="-147.1" font-family="Times Roman,serif" font-size="11.00" fill="gray">Lazy</text>
</g>
<!-- \\dooaki\\Container\\Lazy\\Enumerator -->
<g id="node5" class="node"><title>\\dooaki\\Container\\Lazy\\Enumerator</title>
<polygon fill="none" stroke="black" points="124,-130 40,-130 40,-94 124,-94 124,-130"/>
<text text-anchor="middle" x="82" y="-109.1" font-family="Courier,monospace" font-size="11.00">Enumerator</text>
</g>
<!-- \\dooaki\\Container\\Lazy\\Enumerable -->
<g id="node6" class="node"><title>\\dooaki\\Container\\Lazy\\Enumerable</title>
<polygon fill="none" stroke="black" points="124,-76 40,-76 40,-40 124,-40 124,-76"/>
<text text-anchor="middle" x="82" y="-55.1" font-family="Courier,monospace" font-size="11.00">Enumerable</text>
</g>
</g>
</svg>
